<?xml version="1.0" encoding="UTF-8"?>
<svg id="Layer_1" data-name="Layer 1" xmlns="http://www.w3.org/2000/svg" viewBox="0 0 192 72">
  <defs>
    <style>
      .cls-1 {
        fill: #231f20;
      }

      .cls-2 {
        isolation: isolate;
      }
    </style>
  </defs>
  <g class="cls-2">
    <path class="cls-1" d="M29.62,24.21c-3.4,0-5.73,1.44-7,4.32-.66,1.52-.98,3.47-.98,5.84v20.74h-9.98V16.86h9.67v5.59c1.29-1.97,2.51-3.39,3.66-4.25,2.06-1.55,4.68-2.32,7.84-2.32,3.96,0,7.2,1.04,9.72,3.11,2.52,2.07,3.78,5.51,3.78,10.32v25.8h-10.27v-23.31c0-2.02-.27-3.56-.81-4.64-.98-1.97-2.86-2.95-5.62-2.95Z"/>
    <path class="cls-1" d="M87.53,21.64c3.23,4.05,4.85,8.85,4.85,14.38s-1.62,10.44-4.85,14.43-8.14,5.99-14.73,5.99-11.5-2-14.73-5.99-4.85-8.81-4.85-14.43,1.62-10.32,4.85-14.38,8.14-6.08,14.73-6.08,11.5,2.03,14.73,6.08ZM72.76,24.03c-2.93,0-5.19,1.04-6.77,3.11s-2.37,5.03-2.37,8.88.79,6.81,2.37,8.89,3.84,3.13,6.77,3.13,5.18-1.04,6.75-3.13c1.57-2.09,2.36-5.05,2.36-8.89s-.79-6.8-2.36-8.88c-1.57-2.07-3.82-3.11-6.75-3.11Z"/>
    <path class="cls-1" d="M117.59,24.21c-3.4,0-5.73,1.44-7,4.32-.66,1.52-.98,3.47-.98,5.84v20.74h-9.98V16.86h9.67v5.59c1.29-1.97,2.51-3.39,3.66-4.25,2.06-1.55,4.68-2.32,7.84-2.32,3.96,0,7.2,1.04,9.72,3.11s3.78,5.51,3.78,10.32v25.8h-10.27v-23.31c0-2.02-.27-3.56-.81-4.64-.98-1.97-2.86-2.95-5.62-2.95Z"/>
    <path class="cls-1" d="M175.49,21.64c3.23,4.05,4.85,8.85,4.85,14.38s-1.62,10.44-4.85,14.43-8.14,5.99-14.73,5.99-11.5-2-14.73-5.99-4.85-8.81-4.85-14.43,1.62-10.32,4.85-14.38,8.14-6.08,14.73-6.08,11.5,2.03,14.73,6.08ZM160.72,24.03c-2.93,0-5.19,1.04-6.77,3.11s-2.37,5.03-2.37,8.88.79,6.81,2.37,8.89,3.84,3.13,6.77,3.13,5.18-1.04,6.75-3.13,2.36-5.05,2.36-8.89-.79-6.8-2.36-8.88-3.82-3.11-6.75-3.11Z"/>
  </g>
</svg>